Coordinates
version=1
nRows=16
nColumns=22
inDegrees=yes

Units are S.I. units (second, meters, Newtons, ...)
If the header above contains a line with 'inDegrees', this indicates whether rotational values are in degrees (yes) or radians (no).

endheader
time	pelvis_tilt	pelvis_list	pelvis_rotation	pelvis_tx	pelvis_ty	pelvis_tz	hip_flexion_r	hip_adduction_r	hip_rotation_r	knee_angle_r	ankle_angle_r	subtalar_angle_r	hip_flexion_l	hip_adduction_l	hip_rotation_l	knee_angle_l	ankle_angle_l	subtalar_angle_l	lumbar_extension	lumbar_bending	lumbar_rotation
      0.01000000	      5.25256849	     -3.44113641	      7.17830630	     -1.34824905	      0.95478211	     -0.66796690	     -3.87013371	      4.80680594	    -10.20937262	     -8.27250325	      8.06527682	     -1.51432706	     -0.36917501	     -4.42004934	    -14.49813854	    -17.39043799	     20.47299042	     -8.66321095	    -12.85627383	      4.30945609	     -8.21945856
      0.02000000	      5.25635288	     -3.44090707	      7.18698376	     -1.34829016	      0.95479704	     -0.66799488	     -3.86987949	      4.80734545	    -10.20816811	     -8.27656777	      8.05891204	     -1.51659080	     -0.36833052	     -4.41884086	    -14.50022148	    -17.38710652	     20.47547953	     -8.66305555	    -12.86587434	      4.30811008	     -8.21776968
      0.03000000	      5.28040150	     -3.43980494	      7.18783379	     -1.34835728	      0.95483912	     -0.66801589	     -3.87664514	      4.80589016	    -10.21334160	     -8.30946748	      8.02576761	     -1.52880293	     -0.38356067	     -4.41937317	    -14.49634876	    -17.39863611	     20.48647977	     -8.65919336	    -12.90445337	      4.30881803	     -8.21747992
      0.04000000	      5.28244107	     -3.44060998	      7.19584706	     -1.34840852	      0.95485126	     -0.66805271	     -3.87579869	      4.80742155	    -10.21531117	     -8.31074195	      8.02329016	     -1.53024563	     -0.38132218	     -4.41827240	    -14.49880933	    -17.39466055	     20.48725426	     -8.65870637	    -12.91278680	      4.30892722	     -8.21515779
      0.05000000	      5.30617666	     -3.44326795	      7.20421270	     -1.34849769	      0.95488977	     -0.66809753	     -3.87941320	      4.80868227	    -10.24143309	     -8.34642683	      7.99799214	     -1.54211582	     -0.39178698	     -4.42283521	    -14.49060014	    -17.40971661	     20.48961621	     -8.65357179	    -12.95307035	      4.31602083	     -8.21194529
      0.06000000	      5.30743491	     -3.44422519	      7.21121123	     -1.34856671	      0.95489991	     -0.66814924	     -3.87693180	      4.80822712	    -10.24537110	     -8.34654772	      7.99601767	     -1.54361830	     -0.38789048	     -4.42070387	    -14.49198106	    -17.40617315	     20.48991880	     -8.65298749	    -12.96285237	      4.31851249	     -8.21100994
      0.07000000	      5.32578660	     -3.44605383	      7.22566827	     -1.34867169	      0.95492775	     -0.66821507	     -3.87385988	      4.80703160	    -10.27951064	     -8.38121477	      7.97521770	     -1.55580255	     -0.38848150	     -4.42243982	    -14.47243788	    -17.42637739	     20.48632462	     -8.64987407	    -12.99808978	      4.32718313	     -8.21483083
      0.08000000	      5.32600085	     -3.44727590	      7.23136841	     -1.34874251	      0.95493334	     -0.66827056	     -3.86959733	      4.80546073	    -10.28381353	     -8.38002089	      7.97397976	     -1.55738769	     -0.38413566	     -4.42010306	    -14.47223765	    -17.42332157	     20.48597037	     -8.64989026	    -13.00698528	      4.33071489	     -8.21480855
      0.09000000	      5.33754026	     -3.45041778	      7.24690006	     -1.34884430	      0.95495131	     -0.66833969	     -3.85934289	      4.80430181	    -10.31571103	     -8.41129879	      7.95795705	     -1.57170718	     -0.37829774	     -4.42159454	    -14.43987219	    -17.44354989	     20.47505390	     -8.65417810	    -13.03315505	      4.34101819	     -8.22065761
      0.10000000	      5.33674300	     -3.45189573	      7.24997401	     -1.34890363	      0.95495467	     -0.66838452	     -3.85451946	      4.80313614	    -10.31925459	     -8.40909101	      7.95728440	     -1.57334759	     -0.37508853	     -4.42013688	    -14.43856958	    -17.44141782	     20.47422425	     -8.65531502	    -13.03965229	      4.34371915	     -8.22117070
      0.11000000	      5.34221134	     -3.45931037	      7.26478746	     -1.34899540	      0.95496464	     -0.66844573	     -3.84074367	      4.80655768	    -10.34780849	     -8.43486590	      7.94299354	     -1.59215786	     -0.36447271	     -4.42503171	    -14.39564692	    -17.45984771	     20.45629989	     -8.67394943	    -13.05625259	      4.35718049	     -8.22592307
      0.12000000	      5.34072872	     -3.46090934	      7.26565963	     -1.34904807	      0.95496666	     -0.66848241	     -3.83651786	      4.80555249	    -10.35093953	     -8.43164060	      7.94257427	     -1.59402255	     -0.36151728	     -4.42416160	    -14.39402794	    -17.45824222	     20.45564420	     -8.67645489	    -13.06100373	      4.35923725	     -8.22725208
      0.13000000	      5.34151738	     -3.46234677	      7.26585459	     -1.34907998	      0.95496985	     -0.66851495	     -3.83516485	      4.80486959	    -10.35114159	     -8.43095928	      7.94251433	     -1.59423365	     -0.36195833	     -4.42404034	    -14.39362458	    -17.45867365	     20.45546588	     -8.67678140	    -13.06113020	      4.35906516	     -8.22736359
      0.14000000	      5.32756818	     -3.47602248	      7.30285414	     -1.34917453	      0.95494921	     -0.66860054	     -3.81413021	      4.81701273	    -10.40277643	     -8.42619369	      7.93228503	     -1.65064470	     -0.32360866	     -4.43155882	    -14.31147554	    -17.47653939	     20.43105971	     -8.77767306	    -13.05304997	      4.38169929	     -8.26891183
      0.15000000	      5.32764976	     -3.47570023	      7.30030710	     -1.34922490	      0.95494867	     -0.66864567	     -3.81135627	      4.81191391	    -10.40183786	     -8.42290313	      7.93343947	     -1.65178534	     -0.32133609	     -4.42741118	    -14.31043268	    -17.47887942	     20.43280116	     -8.77969679	    -13.05721478	      4.38580893	     -8.26796055
      0.16000000	      5.32910488	     -3.47702665	      7.30022084	     -1.34925912	      0.95494857	     -0.66867528	     -3.81019727	      4.81115868	    -10.40167679	     -8.42191614	      7.93366198	     -1.65189005	     -0.32123073	     -4.42699020	    -14.31030344	    -17.47914334	     20.43289505	     -8.77992623	    -13.05722727	      4.38532616	     -8.26796707
